<svg version="1.1" id="Layer_1" xmlns="http://www.w3.org/2000/svg" xmlns:xlink="http://www.w3.org/1999/xlink" x="0px" y="0px"
	 width="100%" viewBox="0 0 1133 1133" enable-background="new 0 0 1133 1133" xml:space="preserve">
<path fill="#000000" opacity="1.000000" stroke="none" 
	d="
M1134.000000,926.000000 
	C1134.000000,995.318665 1134.000000,1064.637329 1134.000000,1133.978027 
	C756.427734,1133.978027 378.855530,1133.978027 1.000000,1133.978027 
	C1.000000,919.973206 1.000000,705.946289 1.403492,491.464294 
	C2.543968,492.982758 3.312410,494.945312 4.012733,496.931824 
	C8.013016,508.278961 17.071024,512.038696 27.789202,506.630798 
	C33.674404,503.661377 39.358814,500.292877 45.253124,497.342804 
	C67.073738,486.421661 88.707550,474.976349 112.818481,469.720245 
	C116.901009,468.830231 122.635353,467.364563 125.261322,469.317810 
	C138.625412,479.258240 152.903732,487.043701 169.068359,490.939484 
	C181.907425,494.033752 194.849579,496.899933 207.895248,498.887390 
	C224.638458,501.438141 241.488419,503.636932 258.374146,504.783539 
	C270.049744,505.576385 281.865692,504.390472 293.614655,503.969330 
	C298.039612,503.810699 302.511414,503.658936 306.860352,502.912445 
	C322.895264,500.160187 338.906464,501.277008 354.878906,503.094055 
	C366.328461,504.396576 377.717010,506.263153 389.110168,508.024384 
	C398.551849,509.483978 407.965240,511.129303 417.382446,512.743408 
	C427.423920,514.464417 437.463318,516.200439 447.487946,518.016357 
	C453.950226,519.186951 460.384247,520.513306 467.223114,521.846313 
	C462.422882,529.573547 458.042755,536.884827 453.337311,543.980408 
	C452.391113,545.407288 450.285950,546.683105 448.583405,546.877930 
	C442.873932,547.531494 437.073334,547.390991 431.364655,548.049011 
	C415.546692,549.872314 400.664368,554.891846 386.455414,561.956665 
	C374.429047,567.936218 363.317200,575.223694 352.661957,583.511353 
	C337.992493,594.921326 325.099243,608.009155 312.829773,621.798889 
	C309.424164,625.626465 306.785309,630.136169 303.236542,635.116150 
	C307.416504,634.238159 310.433136,633.829895 313.308411,632.956421 
	C320.584961,630.745911 328.681763,630.854675 334.639038,624.904541 
	C346.898651,612.659607 360.818268,602.482361 375.800537,593.919006 
	C382.788330,589.925110 390.631622,587.427917 398.087128,584.252319 
	C398.305542,584.742615 398.523926,585.232910 398.742340,585.723145 
	C374.654449,597.039001 353.134705,611.888550 334.476227,631.786255 
	C341.188873,630.788208 347.274292,630.191162 353.214691,628.917786 
	C359.774170,627.511597 366.412781,626.023621 372.624786,623.576111 
	C378.696411,621.183960 384.369965,617.703308 390.050751,614.411438 
	C409.748352,602.997070 430.618561,594.315247 452.517242,588.307739 
	C465.470978,584.754089 478.585327,583.611450 492.131958,586.792480 
	C507.892548,590.493347 521.911377,597.726990 535.843018,605.412109 
	C538.695679,606.985657 543.643311,605.136719 543.859680,601.978088 
	C543.957153,600.554993 542.961548,598.919678 542.125000,597.593079 
	C538.001282,591.053955 535.987183,583.329285 528.011475,579.186829 
	C518.767761,574.385681 510.302979,568.051453 501.685455,562.113647 
	C500.394745,561.224304 499.037933,558.379822 499.540924,557.265137 
	C503.330139,548.867126 507.577332,540.675781 511.617065,532.549316 
	C534.198486,541.386780 586.965576,554.610474 592.705261,553.152954 
	C591.280396,551.419861 590.057556,549.300476 588.268372,547.909424 
	C585.794373,545.985962 583.077881,543.915161 580.139832,543.138428 
	C572.824402,541.204407 565.200500,540.408813 557.925049,538.358887 
	C541.894348,533.842163 526.118530,528.393311 510.022827,524.142212 
	C491.676727,519.296692 473.137360,515.151855 454.602264,511.064117 
	C442.459229,508.386108 430.197998,506.216888 417.945801,504.070251 
	C408.996063,502.502197 399.987213,501.251038 390.981873,500.026611 
	C382.589783,498.885529 374.167206,497.968689 365.758636,496.948792 
	C354.925629,495.634827 344.070984,493.081848 333.265381,493.275818 
	C314.907990,493.605408 296.596466,495.941254 278.238281,496.921692 
	C258.255585,497.988922 238.358627,496.244659 218.533920,493.776398 
	C215.432648,493.390289 212.382553,492.593048 208.460281,491.818298 
	C214.337967,489.640472 219.316193,487.900970 224.215302,485.961670 
	C241.788025,479.005585 259.409882,472.164429 276.860535,464.912598 
	C286.742096,460.806183 296.613403,456.506012 305.974365,451.356903 
	C318.864838,444.266510 328.068420,432.835419 336.724640,421.379974 
	C350.254517,403.474884 362.720276,384.737640 379.752441,369.800446 
	C387.660034,362.865479 395.969757,356.493652 406.106201,352.922516 
	C410.837128,351.255798 415.378357,349.050751 420.012115,347.086945 
	C406.799835,326.233215 394.902344,304.977325 390.975403,279.886322 
	C396.868134,281.238922 396.936096,281.221558 398.371979,286.836578 
	C403.370361,306.382629 412.527283,324.069794 423.466492,340.766968 
	C432.319031,354.279083 441.824432,367.415833 451.785248,380.135681 
	C463.155701,394.655640 475.084747,408.763794 487.263641,422.617828 
	C499.269867,436.275360 512.049438,449.250122 524.197327,462.786835 
	C535.026917,474.854675 545.579773,487.177582 556.029358,499.577881 
	C567.064331,512.672791 577.789124,526.028687 588.749573,539.187134 
	C591.342651,542.300232 593.819580,546.068848 597.230408,547.850403 
	C617.613892,558.497498 638.144409,568.879333 658.837463,578.913086 
	C685.120422,591.657349 711.568665,604.063354 738.018311,616.460266 
	C751.959717,622.994629 766.084595,629.136597 780.054810,635.610779 
	C782.560669,636.772034 786.002197,638.192810 786.831421,640.336853 
	C794.168335,659.307861 800.548340,678.655518 808.117920,697.528259 
	C818.136475,722.506897 827.876343,747.696594 839.734802,771.812744 
	C854.411743,801.660706 871.033508,830.558289 887.023743,859.752136 
	C894.664490,873.701965 902.597229,887.500916 910.736084,901.166687 
	C922.336365,920.644653 934.187988,939.973999 946.043213,959.298767 
	C957.990356,978.773132 970.043152,998.182983 982.106079,1017.586060 
	C991.364075,1032.477417 1000.636597,1047.360718 1010.039734,1062.160522 
	C1017.507935,1073.915039 1025.183594,1085.537842 1033.088867,1097.714722 
	C1036.380737,1092.548584 1039.177612,1087.885254 1042.239258,1083.402466 
	C1054.708618,1065.145142 1067.127075,1046.849854 1079.890869,1028.799316 
	C1082.445923,1025.185913 1082.400391,1022.868530 1079.979980,1019.334229 
	C1071.787842,1007.371887 1063.872437,995.216248 1056.025879,983.022095 
	C1043.309937,963.260498 1030.746094,943.401001 1018.089111,923.601379 
	C1013.380554,916.235840 1008.590515,908.922302 1003.837708,901.585083 
	C1004.306702,901.226807 1004.775635,900.868469 1005.244629,900.510193 
	C1033.475098,934.766296 1061.705566,969.022400 1090.080078,1003.453430 
	C1091.647217,1000.761475 1092.980103,998.592224 1094.198364,996.360291 
	C1105.137329,976.318848 1116.001709,956.236145 1127.031250,936.244751 
	C1129.017822,932.644226 1131.660400,929.405701 1134.000000,926.000000 
M515.323853,641.281860 
	C515.465088,641.392456 515.606384,641.503052 515.270569,642.153137 
	C497.798126,651.147583 482.037384,662.716492 466.274780,674.483887 
	C477.060974,674.995850 487.646515,675.018982 498.231537,674.954102 
	C499.130463,674.948608 500.064484,674.435303 500.916901,674.022888 
	C511.051361,669.119568 520.987610,663.751404 531.342041,659.370728 
	C547.112183,652.698975 562.929871,645.972717 579.182251,640.661682 
	C591.753418,636.553711 604.745544,632.806580 618.361450,634.026245 
	C624.042358,634.535095 629.760498,635.000854 635.351257,636.066223 
	C648.166809,638.508423 660.955444,641.128723 673.668640,644.052612 
	C678.483887,645.159973 683.061401,647.301025 687.747314,648.970947 
	C680.840088,639.818237 676.841309,628.570129 666.185364,623.016968 
	C656.264709,617.846985 646.345947,612.673279 636.301575,607.436157 
	C639.412659,598.283325 642.587402,588.943176 645.998718,578.907227 
	C631.949524,572.049622 617.636414,565.063171 603.261780,558.046753 
	C602.727844,558.861389 602.239624,559.355164 602.041199,559.946167 
	C598.015442,571.933960 594.073059,583.950256 589.947815,595.903503 
	C589.527222,597.122192 588.184631,598.666870 587.040283,598.891663 
	C575.947327,601.071167 564.621155,602.296692 553.715576,605.148315 
	C530.999512,611.088257 509.158905,619.581604 488.956329,631.662537 
	C475.011230,640.001587 461.434875,648.985168 447.979645,658.102600 
	C441.916382,662.211243 436.550262,667.348694 430.343842,672.450012 
	C438.697357,673.026001 445.753693,673.653137 452.823792,673.939270 
	C456.229706,674.077087 460.401733,674.753052 462.953705,673.153809 
	C474.018219,666.219604 484.450134,658.282104 495.442993,651.224915 
	C501.603271,647.270081 508.409882,644.321899 515.323853,641.281860 
z"/>
<path fill="#000000" opacity="1.000000" stroke="none" 
	d="
M0.999994,451.000000 
	C1.000000,301.024719 1.000000,151.049423 1.000000,1.074136 
	C1.141927,1.049424 1.283854,1.003049 1.425781,1.003048 
	C378.863617,0.999992 756.301453,1.000000 1134.000000,1.000000 
	C1134.000000,307.029327 1134.000000,613.058716 1133.693848,919.834839 
	C1126.763550,914.389526 1119.981567,908.356079 1113.557373,901.963135 
	C1106.331177,894.771912 1099.486694,887.198853 1092.367065,879.898193 
	C1085.358398,872.711060 1078.048584,865.812317 1071.164551,858.510254 
	C1059.401245,846.032715 1047.838013,833.366028 1036.249512,820.724854 
	C1030.473511,814.424133 1024.730591,808.087769 1019.141418,801.621643 
	C1004.903137,785.149658 990.555847,768.764954 976.647644,752.016907 
	C966.793030,740.150269 957.447937,727.850708 948.116943,715.561035 
	C933.765137,696.658752 920.741638,676.820740 910.322510,655.509521 
	C899.758545,633.901917 890.260437,611.771484 880.413757,589.816956 
	C878.901978,586.446350 878.025635,582.790771 876.855408,579.266968 
	C877.293457,579.000061 877.731506,578.733215 878.169495,578.466309 
	C888.272766,586.203674 895.854980,596.512817 905.047119,606.566406 
	C905.760925,599.550720 906.381836,593.462036 906.999634,587.373108 
	C907.659424,580.870178 908.319458,574.367249 908.973511,567.863708 
	C909.772156,559.923401 908.888733,552.719482 902.435730,546.798828 
	C892.416626,537.606201 882.883484,527.886047 872.992615,518.550354 
	C868.716248,514.513977 863.940918,511.009613 859.611572,507.025238 
	C854.919189,502.706757 849.166931,498.825409 846.252930,493.462341 
	C842.232117,486.062256 840.436951,477.452881 837.688477,469.361420 
	C838.206726,468.884064 838.724976,468.406677 839.243164,467.929291 
	C851.860229,476.483032 865.029907,484.339905 876.940308,493.784790 
	C889.067993,503.401947 899.956116,514.582153 910.998535,524.721252 
	C910.998535,507.428375 911.053894,490.204193 910.890747,472.982086 
	C910.878052,471.641113 909.595276,470.018005 908.463684,469.028107 
	C898.975403,460.727722 889.660767,452.192627 879.754761,444.414886 
	C867.200623,434.558014 854.140747,425.345306 841.072754,415.687653 
	C841.824402,414.330322 842.793396,412.580353 844.076172,410.263763 
	C855.103333,414.990173 866.104858,419.066895 876.499023,424.340881 
	C886.835083,429.585388 896.560669,436.033051 906.767517,442.079681 
	C906.874573,441.156799 907.110596,440.606903 906.960754,440.198517 
	C901.614685,425.626770 897.182617,410.625061 890.644409,396.606232 
	C879.340942,372.370209 865.797913,349.338745 850.255737,327.452179 
	C834.293152,304.973602 816.842834,283.808044 797.563293,264.159088 
	C787.106323,253.501801 776.322021,243.149277 765.367249,233.002747 
	C758.183228,226.348694 750.806702,219.781860 742.854614,214.102707 
	C725.930786,202.016220 708.531799,190.597061 691.430054,178.756332 
	C687.475403,176.018280 683.932922,172.685120 680.200806,169.625809 
	C680.447998,169.251846 680.695190,168.877884 680.942444,168.503922 
	C689.115112,172.675888 697.287842,176.847870 705.460571,181.019836 
	C705.666992,180.626617 705.873474,180.233383 706.079956,179.840164 
	C687.576538,158.612045 661.253418,151.514542 635.796692,142.232162 
	C636.216858,141.631500 636.518005,141.088165 636.922974,140.638184 
	C652.108032,123.762871 667.288879,106.883675 682.512634,90.043320 
	C684.526428,87.815651 684.586731,86.666405 681.665833,84.853882 
	C660.602478,71.783127 639.692139,58.465816 618.727417,45.236149 
	C614.725098,42.710560 610.696350,40.226990 606.796448,37.796722 
	C605.311096,40.256130 604.044006,42.119373 603.009277,44.103798 
	C592.844788,63.597626 577.778320,78.819237 560.974548,92.554214 
	C549.610229,101.843094 538.346558,111.255341 526.947083,120.500435 
	C525.135315,121.969788 522.896851,123.735641 520.766541,123.861893 
	C500.028564,125.090858 479.278381,126.202019 458.516663,126.899879 
	C450.284943,127.176567 442.016998,126.097969 433.763000,126.047012 
	C414.129456,125.925819 394.456665,125.432777 375.012604,129.017014 
	C364.715790,130.915070 354.119446,131.988617 344.251038,135.235794 
	C326.226593,141.166733 311.388885,152.342697 300.189575,167.683380 
	C293.071747,177.433304 290.168488,189.106384 287.998962,200.869690 
	C287.618500,202.932465 287.526245,204.828857 284.465942,205.074554 
	C269.956848,206.239395 255.419189,207.273346 240.985672,209.097351 
	C222.851791,211.388992 205.517761,216.949570 188.977539,224.603806 
	C163.349915,236.463379 142.159393,254.024185 125.093605,276.483276 
	C118.838066,284.715759 111.960670,292.735901 107.252457,301.829163 
	C97.789879,320.104736 88.815475,338.789673 88.859352,360.210236 
	C88.861252,361.137787 86.979424,362.539001 85.729813,362.924438 
	C76.239342,365.852203 66.345932,367.766632 57.243557,371.583740 
	C46.429306,376.118713 38.467674,384.672699 30.770317,393.525360 
	C16.564734,409.863098 7.071743,428.313660 2.919293,449.551605 
	C2.804818,450.137115 1.662833,450.521698 0.999994,451.000000 
z"/>
<path fill="#FFFFFF" opacity="1.000000" stroke="none" 
	d="
M0.999994,451.468628 
	C1.662833,450.521698 2.804818,450.137115 2.919293,449.551605 
	C7.071743,428.313660 16.564734,409.863098 30.770317,393.525360 
	C38.467674,384.672699 46.429306,376.118713 57.243557,371.583740 
	C66.345932,367.766632 76.239342,365.852203 85.729813,362.924438 
	C86.979424,362.539001 88.861252,361.137787 88.859352,360.210236 
	C88.815475,338.789673 97.789879,320.104736 107.252457,301.829163 
	C111.960670,292.735901 118.838066,284.715759 125.093605,276.483276 
	C142.159393,254.024185 163.349915,236.463379 188.977539,224.603806 
	C205.517761,216.949570 222.851791,211.388992 240.985672,209.097351 
	C255.419189,207.273346 269.956848,206.239395 284.465942,205.074554 
	C287.526245,204.828857 287.618500,202.932465 287.998962,200.869690 
	C290.168488,189.106384 293.071747,177.433304 300.189575,167.683380 
	C311.388885,152.342697 326.226593,141.166733 344.251038,135.235794 
	C354.119446,131.988617 364.715790,130.915070 375.012604,129.017014 
	C394.456665,125.432777 414.129456,125.925819 433.763000,126.047012 
	C442.016998,126.097969 450.284943,127.176567 458.516663,126.899879 
	C479.278381,126.202019 500.028564,125.090858 520.766541,123.861893 
	C522.896851,123.735641 525.135315,121.969788 526.947083,120.500435 
	C538.346558,111.255341 549.610229,101.843094 560.974548,92.554214 
	C577.778320,78.819237 592.844788,63.597626 603.009277,44.103798 
	C604.044006,42.119373 605.311096,40.256130 606.796448,37.796722 
	C610.696350,40.226990 614.725098,42.710560 618.727417,45.236149 
	C639.692139,58.465816 660.602478,71.783127 681.665833,84.853882 
	C684.586731,86.666405 684.526428,87.815651 682.512634,90.043320 
	C667.288879,106.883675 652.108032,123.762871 636.922974,140.638184 
	C636.518005,141.088165 636.216858,141.631500 635.796692,142.232162 
	C661.253418,151.514542 687.576538,158.612045 706.079956,179.840164 
	C705.873474,180.233383 705.666992,180.626617 705.460571,181.019836 
	C697.287842,176.847870 689.115112,172.675888 680.942444,168.503922 
	C680.695190,168.877884 680.447998,169.251846 680.200806,169.625809 
	C683.932922,172.685120 687.475403,176.018280 691.430054,178.756332 
	C708.531799,190.597061 725.930786,202.016220 742.854614,214.102707 
	C750.806702,219.781860 758.183228,226.348694 765.367249,233.002747 
	C776.322021,243.149277 787.106323,253.501801 797.563293,264.159088 
	C816.842834,283.808044 834.293152,304.973602 850.255737,327.452179 
	C865.797913,349.338745 879.340942,372.370209 890.644409,396.606232 
	C897.182617,410.625061 901.614685,425.626770 906.960754,440.198517 
	C907.110596,440.606903 906.874573,441.156799 906.767517,442.079681 
	C896.560669,436.033051 886.835083,429.585388 876.499023,424.340881 
	C866.104858,419.066895 855.103333,414.990173 844.076172,410.263763 
	C842.793396,412.580353 841.824402,414.330322 841.072754,415.687653 
	C854.140747,425.345306 867.200623,434.558014 879.754761,444.414886 
	C889.660767,452.192627 898.975403,460.727722 908.463684,469.028107 
	C909.595276,470.018005 910.878052,471.641113 910.890747,472.982086 
	C911.053894,490.204193 910.998535,507.428375 910.998535,524.721252 
	C899.956116,514.582153 889.067993,503.401947 876.940308,493.784790 
	C865.029907,484.339905 851.860229,476.483032 839.243164,467.929291 
	C838.724976,468.406677 838.206726,468.884064 837.688477,469.361420 
	C840.436951,477.452881 842.232117,486.062256 846.252930,493.462341 
	C849.166931,498.825409 854.919189,502.706757 859.611572,507.025238 
	C863.940918,511.009613 868.716248,514.513977 872.992615,518.550354 
	C882.883484,527.886047 892.416626,537.606201 902.435730,546.798828 
	C908.888733,552.719482 909.772156,559.923401 908.973511,567.863708 
	C908.319458,574.367249 907.659424,580.870178 906.999634,587.373108 
	C906.381836,593.462036 905.760925,599.550720 905.047119,606.566406 
	C895.854980,596.512817 888.272766,586.203674 878.169495,578.466309 
	C877.731506,578.733215 877.293457,579.000061 876.855408,579.266968 
	C878.025635,582.790771 878.901978,586.446350 880.413757,589.816956 
	C890.260437,611.771484 899.758545,633.901917 910.322510,655.509521 
	C920.741638,676.820740 933.765137,696.658752 948.116943,715.561035 
	C957.447937,727.850708 966.793030,740.150269 976.647644,752.016907 
	C990.555847,768.764954 1004.903137,785.149658 1019.141418,801.621643 
	C1024.730591,808.087769 1030.473511,814.424133 1036.249512,820.724854 
	C1047.838013,833.366028 1059.401245,846.032715 1071.164551,858.510254 
	C1078.048584,865.812317 1085.358398,872.711060 1092.367065,879.898193 
	C1099.486694,887.198853 1106.331177,894.771912 1113.557373,901.963135 
	C1119.981567,908.356079 1126.763550,914.389526 1133.693848,920.290771 
	C1134.000000,921.714355 1134.000000,923.428711 1134.000000,925.571533 
	C1131.660400,929.405701 1129.017822,932.644226 1127.031250,936.244751 
	C1116.001709,956.236145 1105.137329,976.318848 1094.198364,996.360291 
	C1092.980103,998.592224 1091.647217,1000.761475 1090.080078,1003.453430 
	C1061.705566,969.022400 1033.475098,934.766296 1005.244629,900.510193 
	C1004.775635,900.868469 1004.306702,901.226807 1003.837708,901.585083 
	C1008.590515,908.922302 1013.380554,916.235840 1018.089111,923.601379 
	C1030.746094,943.401001 1043.309937,963.260498 1056.025879,983.022095 
	C1063.872437,995.216248 1071.787842,1007.371887 1079.979980,1019.334229 
	C1082.400391,1022.868530 1082.445923,1025.185913 1079.890869,1028.799316 
	C1067.127075,1046.849854 1054.708618,1065.145142 1042.239258,1083.402466 
	C1039.177612,1087.885254 1036.380737,1092.548584 1033.088867,1097.714722 
	C1025.183594,1085.537842 1017.507935,1073.915039 1010.039734,1062.160522 
	C1000.636597,1047.360718 991.364075,1032.477417 982.106079,1017.586060 
	C970.043152,998.182983 957.990356,978.773132 946.043213,959.298767 
	C934.187988,939.973999 922.336365,920.644653 910.736084,901.166687 
	C902.597229,887.500916 894.664490,873.701965 887.023743,859.752136 
	C871.033508,830.558289 854.411743,801.660706 839.734802,771.812744 
	C827.876343,747.696594 818.136475,722.506897 808.117920,697.528259 
	C800.548340,678.655518 794.168335,659.307861 786.831421,640.336853 
	C786.002197,638.192810 782.560669,636.772034 780.054810,635.610779 
	C766.084595,629.136597 751.959717,622.994629 738.018311,616.460266 
	C711.568665,604.063354 685.120422,591.657349 658.837463,578.913086 
	C638.144409,568.879333 617.613892,558.497498 597.230408,547.850403 
	C593.819580,546.068848 591.342651,542.300232 588.749573,539.187134 
	C577.789124,526.028687 567.064331,512.672791 556.029358,499.577881 
	C545.579773,487.177582 535.026917,474.854675 524.197327,462.786835 
	C512.049438,449.250122 499.269867,436.275360 487.263641,422.617828 
	C475.084747,408.763794 463.155701,394.655640 451.785248,380.135681 
	C441.824432,367.415833 432.319031,354.279083 423.466492,340.766968 
	C412.527283,324.069794 403.370361,306.382629 398.371979,286.836578 
	C396.936096,281.221558 396.868134,281.238922 390.975403,279.886322 
	C394.902344,304.977325 406.799835,326.233215 420.012115,347.086945 
	C415.378357,349.050751 410.837128,351.255798 406.106201,352.922516 
	C395.969757,356.493652 387.660034,362.865479 379.752441,369.800446 
	C362.720276,384.737640 350.254517,403.474884 336.724640,421.379974 
	C328.068420,432.835419 318.864838,444.266510 305.974365,451.356903 
	C296.613403,456.506012 286.742096,460.806183 276.860535,464.912598 
	C259.409882,472.164429 241.788025,479.005585 224.215302,485.961670 
	C219.316193,487.900970 214.337967,489.640472 208.460281,491.818298 
	C212.382553,492.593048 215.432648,493.390289 218.533920,493.776398 
	C238.358627,496.244659 258.255585,497.988922 278.238281,496.921692 
	C296.596466,495.941254 314.907990,493.605408 333.265381,493.275818 
	C344.070984,493.081848 354.925629,495.634827 365.758636,496.948792 
	C374.167206,497.968689 382.589783,498.885529 390.981873,500.026611 
	C399.987213,501.251038 408.996063,502.502197 417.945801,504.070251 
	C430.197998,506.216888 442.459229,508.386108 454.602264,511.064117 
	C473.137360,515.151855 491.676727,519.296692 510.022827,524.142212 
	C526.118530,528.393311 541.894348,533.842163 557.925049,538.358887 
	C565.200500,540.408813 572.824402,541.204407 580.139832,543.138428 
	C583.077881,543.915161 585.794373,545.985962 588.268372,547.909424 
	C590.057556,549.300476 591.280396,551.419861 592.705261,553.152954 
	C586.965576,554.610474 534.198486,541.386780 511.617065,532.549316 
	C507.577332,540.675781 503.330139,548.867126 499.540924,557.265137 
	C499.037933,558.379822 500.394745,561.224304 501.685455,562.113647 
	C510.302979,568.051453 518.767761,574.385681 528.011475,579.186829 
	C535.987183,583.329285 538.001282,591.053955 542.125000,597.593079 
	C542.961548,598.919678 543.957153,600.554993 543.859680,601.978088 
	C543.643311,605.136719 538.695679,606.985657 535.843018,605.412109 
	C521.911377,597.726990 507.892548,590.493347 492.131958,586.792480 
	C478.585327,583.611450 465.470978,584.754089 452.517242,588.307739 
	C430.618561,594.315247 409.748352,602.997070 390.050751,614.411438 
	C384.369965,617.703308 378.696411,621.183960 372.624786,623.576111 
	C366.412781,626.023621 359.774170,627.511597 353.214691,628.917786 
	C347.274292,630.191162 341.188873,630.788208 334.476227,631.786255 
	C353.134705,611.888550 374.654449,597.039001 398.742340,585.723145 
	C398.523926,585.232910 398.305542,584.742615 398.087128,584.252319 
	C390.631622,587.427917 382.788330,589.925110 375.800537,593.919006 
	C360.818268,602.482361 346.898651,612.659607 334.639038,624.904541 
	C328.681763,630.854675 320.584961,630.745911 313.308411,632.956421 
	C310.433136,633.829895 307.416504,634.238159 303.236542,635.116150 
	C306.785309,630.136169 309.424164,625.626465 312.829773,621.798889 
	C325.099243,608.009155 337.992493,594.921326 352.661957,583.511353 
	C363.317200,575.223694 374.429047,567.936218 386.455414,561.956665 
	C400.664368,554.891846 415.546692,549.872314 431.364655,548.049011 
	C437.073334,547.390991 442.873932,547.531494 448.583405,546.877930 
	C450.285950,546.683105 452.391113,545.407288 453.337311,543.980408 
	C458.042755,536.884827 462.422882,529.573547 467.223114,521.846313 
	C460.384247,520.513306 453.950226,519.186951 447.487946,518.016357 
	C437.463318,516.200439 427.423920,514.464417 417.382446,512.743408 
	C407.965240,511.129303 398.551849,509.483978 389.110168,508.024384 
	C377.717010,506.263153 366.328461,504.396576 354.878906,503.094055 
	C338.906464,501.277008 322.895264,500.160187 306.860352,502.912445 
	C302.511414,503.658936 298.039612,503.810699 293.614655,503.969330 
	C281.865692,504.390472 270.049744,505.576385 258.374146,504.783539 
	C241.488419,503.636932 224.638458,501.438141 207.895248,498.887390 
	C194.849579,496.899933 181.907425,494.033752 169.068359,490.939484 
	C152.903732,487.043701 138.625412,479.258240 125.261322,469.317810 
	C122.635353,467.364563 116.901009,468.830231 112.818481,469.720245 
	C88.707550,474.976349 67.073738,486.421661 45.253124,497.342804 
	C39.358814,500.292877 33.674404,503.661377 27.789202,506.630798 
	C17.071024,512.038696 8.013016,508.278961 4.012733,496.931824 
	C3.312410,494.945312 2.543968,492.982758 1.403492,491.004578 
	C1.000000,477.979095 1.000000,464.958221 0.999994,451.468628 
M817.000610,697.556641 
	C821.680969,709.477966 825.920044,721.596619 831.140503,733.276550 
	C839.973267,753.038635 848.951965,772.764648 858.754150,792.056091 
	C868.283203,810.809875 878.806641,829.064697 889.115051,847.414001 
	C896.830933,861.148682 904.751282,874.774048 912.843994,888.290344 
	C925.562622,909.532593 938.471985,930.661072 951.359070,951.802002 
	C961.906250,969.104492 972.464294,986.401062 983.153748,1003.615723 
	C994.693176,1022.199219 1006.330872,1040.722534 1018.048340,1059.194458 
	C1022.953003,1066.926270 1028.172974,1074.458252 1033.517578,1082.483398 
	C1046.233276,1063.554443 1058.552002,1045.039917 1071.135254,1026.707031 
	C1072.713745,1024.407349 1072.828857,1023.044739 1071.415405,1020.856750 
	C1055.781006,996.654358 1040.281616,972.364807 1024.621460,948.179321 
	C1003.527405,915.601868 982.305603,883.107178 961.186035,850.546265 
	C957.460327,844.802063 953.966309,838.907532 950.308044,832.989868 
	C952.856995,831.409180 954.701294,830.265381 956.918762,828.890259 
	C1000.914612,882.198242 1044.786011,935.355408 1088.929077,988.841675 
	C1100.274902,968.295654 1111.078003,948.588013 1122.060059,928.980591 
	C1123.998535,925.519714 1124.017334,923.367249 1120.940063,920.249207 
	C1098.178345,897.186584 1075.577637,873.962341 1053.145508,850.578552 
	C1039.432983,836.284241 1026.070679,821.652649 1012.628967,807.100647 
	C1007.169556,801.190369 1001.742859,795.233582 996.605286,789.045532 
	C984.529724,774.501160 972.429199,759.968689 960.733215,745.120605 
	C950.514832,732.148315 940.593201,718.924988 930.978027,705.499146 
	C918.586853,688.197144 907.977539,669.801880 898.871399,650.548767 
	C898.199890,649.128906 896.962585,647.976685 895.622498,646.220642 
	C893.947205,654.654175 892.494629,662.096619 890.979370,669.526245 
	C890.417847,672.279724 889.325745,673.659241 885.947449,672.561523 
	C872.989746,668.351440 859.837402,664.729187 846.932617,660.369812 
	C830.242310,654.731689 813.719421,648.598083 796.783936,642.556274 
	C797.591187,644.907166 798.259277,647.018921 799.036560,649.089661 
	C805.001953,664.982117 810.988647,680.866577 817.000610,697.556641 
M9.000001,482.289917 
	C9.842634,486.212158 10.313569,490.262268 11.609315,494.028625 
	C13.932746,500.782104 16.880650,501.818176 23.388395,499.802399 
	C25.168543,499.251007 26.691002,497.916809 28.403934,497.091766 
	C48.339352,487.490021 68.038193,477.338959 88.326538,468.549469 
	C100.846832,463.125336 114.220932,459.576904 128.105499,458.996002 
	C135.849289,458.672058 143.593018,458.087677 151.335648,458.105438 
	C155.092606,458.114044 157.316895,456.647095 157.848984,453.287292 
	C158.814255,447.192108 159.997711,441.001556 159.815079,434.888916 
	C159.608002,427.958008 158.378342,420.988159 156.920761,414.179169 
	C154.199783,401.468536 151.315460,388.772705 147.852448,376.249542 
	C146.109146,369.945312 141.895126,366.475250 134.900681,366.982605 
	C120.336006,368.039154 105.725471,368.615540 91.204590,370.087646 
	C69.641342,372.273682 51.454399,380.996094 37.230125,398.043488 
	C26.861511,410.469971 18.597715,423.897278 13.458245,439.143646 
	C8.849055,452.816956 8.225065,467.047485 9.000001,482.289917 
M691.679016,226.037338 
	C702.427734,222.436279 713.176392,218.835220 724.581177,215.014359 
	C723.009216,213.659683 722.090942,212.782669 721.087402,212.017532 
	C714.773376,207.203583 708.417114,202.444870 702.118408,197.611038 
	C687.965393,186.749512 673.837585,175.855179 659.700256,164.973221 
	C657.124756,162.990799 654.436768,159.302826 652.009827,159.468307 
	C649.247009,159.656708 646.791138,163.380600 644.075928,165.398361 
	C631.347778,174.857285 618.903076,184.746658 605.736084,193.553772 
	C589.835571,204.189285 573.661377,214.520111 556.965210,223.835022 
	C536.206482,235.416504 514.221497,244.467163 491.282471,250.923828 
	C474.341125,255.692307 456.992065,258.914154 439.425842,258.758057 
	C425.753571,258.636566 412.007294,256.940918 398.464539,254.843369 
	C383.995209,252.602295 369.711334,249.137817 355.377136,246.064377 
	C350.012207,244.914062 344.733612,243.360886 338.766266,241.824173 
	C339.552704,242.846054 339.767853,243.377167 340.158325,243.596985 
	C360.575623,255.092072 380.791962,267.006104 402.806366,275.324829 
	C417.599731,280.914886 432.701019,285.921661 448.544617,286.771057 
	C458.808258,287.321350 469.296692,286.382263 479.494171,284.847046 
	C495.928528,282.372894 512.456299,279.806519 528.497498,275.581696 
	C561.843567,266.799194 594.997681,257.241272 628.033936,247.345230 
	C649.204346,241.003601 670.023438,233.488846 691.679016,226.037338 
M206.538986,294.975555 
	C192.666534,303.640076 182.093216,315.291931 175.014771,330.042450 
	C171.238815,337.911041 168.557953,346.013245 167.805420,354.901489 
	C167.143127,362.724091 167.979370,367.006927 174.470413,370.706879 
	C179.742126,373.711792 185.294113,376.418121 191.020218,378.390625 
	C201.327271,381.941223 211.396881,387.194336 222.759399,385.899658 
	C229.619400,385.118011 236.403046,383.508514 243.158005,381.990662 
	C268.851776,376.217133 291.516571,364.560516 310.862091,346.627716 
	C321.622955,336.652649 332.280823,326.566467 343.139343,316.385712 
	C341.340149,314.739075 340.783630,314.094971 340.105072,313.628296 
	C320.233154,299.961090 299.049438,289.054565 275.254639,284.136780 
	C262.382812,281.476501 249.469162,281.235168 236.318542,283.719971 
	C225.828201,285.702057 216.404190,289.754639 206.538986,294.975555 
M547.488281,125.000008 
	C557.144592,126.329613 566.875916,127.264000 576.440430,129.077698 
	C592.408813,132.105743 608.261169,135.742996 624.194580,138.964325 
	C625.526489,139.233627 627.607483,138.776169 628.489502,137.847824 
	C643.328552,122.229744 658.032410,106.483139 673.592346,89.883743 
	C651.609619,76.015839 630.733582,62.846073 609.393188,49.383400 
	C592.599243,81.924316 561.999939,100.341362 535.869995,123.721024 
	C539.841980,124.195839 543.205566,124.597916 547.488281,125.000008 
M111.484726,310.011688 
	C109.151001,315.154327 106.817284,320.296967 104.483566,325.439575 
	C105.040619,325.974365 105.597672,326.509155 106.154724,327.043915 
	C168.009689,283.997223 235.431870,250.611526 301.892639,213.143219 
	C298.882599,212.627380 297.000763,211.872040 295.230774,212.077988 
	C288.303436,212.884018 281.409821,213.982727 274.506592,214.992599 
	C252.488464,218.213577 230.777344,222.610611 210.710052,232.758041 
	C201.989120,237.167953 193.125763,241.448242 184.946335,246.743866 
	C169.929642,256.466156 155.553360,267.175659 140.566956,276.947327 
	C127.930580,285.186676 117.977074,295.485504 111.484726,310.011688 
M307.406952,171.071747 
	C300.519165,180.915833 297.359955,192.015259 295.665405,204.989456 
	C297.862854,203.685013 299.252655,203.205475 300.161316,202.262390 
	C304.761963,197.487564 308.927399,192.249939 313.824371,187.813599 
	C322.840210,179.645782 333.199615,173.456909 344.549103,169.010300 
	C350.918488,166.514847 357.994232,165.144913 363.584534,161.485077 
	C373.872467,154.749786 384.482574,148.900894 395.945831,144.576477 
	C405.435120,140.996719 414.997864,137.611542 424.528076,134.140182 
	C406.078003,134.315933 387.640442,135.083832 369.370239,137.257782 
	C360.087677,138.362289 350.814209,141.249542 342.056396,144.664047 
	C328.377533,149.997177 317.322601,159.310394 307.406952,171.071747 
M872.974487,612.458923 
	C877.569031,617.539368 882.163635,622.619751 887.605713,628.637268 
	C886.820435,626.422485 886.457458,625.264404 886.004822,624.142578 
	C879.004272,606.789734 871.984924,589.444458 864.987122,572.090454 
	C863.007385,567.180847 860.718384,562.789673 855.745850,559.868591 
	C846.873657,554.656616 838.690613,548.222656 829.650513,543.356384 
	C814.604309,535.256958 799.108948,527.991882 783.751282,520.349792 
	C782.227600,522.656006 781.219055,524.182495 780.267944,525.622070 
	C783.010559,528.061096 785.527222,530.404297 788.154114,532.616638 
	C798.386169,541.234009 808.958801,549.475159 818.828491,558.487427 
	C830.727173,569.352417 842.131165,580.767151 853.571350,592.123169 
	C860.048218,598.552429 866.168335,605.341125 872.974487,612.458923 
M491.337341,162.961227 
	C514.026428,154.254669 537.802124,151.137085 561.831604,150.185165 
	C572.624146,149.757660 583.570129,150.758743 594.312683,152.147339 
	C607.113037,153.801956 619.788025,156.472305 632.478271,158.906555 
	C636.731934,159.722473 640.443054,159.924561 643.074951,154.542984 
	C633.453003,152.628174 624.092651,150.389603 614.609741,148.969055 
	C601.410217,146.991760 588.158752,144.963821 574.857117,144.165146 
	C557.603821,143.129181 540.456421,145.027344 523.358704,147.872574 
	C503.992065,151.095322 485.732056,157.516495 468.034790,165.583694 
	C450.357452,173.641800 435.219940,185.355637 421.885742,199.528183 
	C409.050049,213.170929 399.675323,228.727707 393.755219,247.057617 
	C396.636139,246.217056 399.453430,248.757050 401.185577,243.983017 
	C409.144836,222.046478 422.964417,204.079056 441.053345,189.599762 
	C455.842346,177.761902 472.422821,168.876083 491.337341,162.961227 
M330.028534,194.670181 
	C333.995148,189.923676 337.961761,185.177170 342.120148,180.201172 
	C333.348358,181.068054 311.350067,198.091736 308.617157,205.798065 
	C313.577087,208.302353 318.561005,209.033096 322.777313,204.622162 
	C325.456818,201.818970 327.588287,198.491913 330.028534,194.670181 
M814.760498,459.967438 
	C809.709595,457.036926 810.156616,461.666168 808.778992,463.947601 
	C816.836914,470.725189 824.654846,477.300903 832.681946,484.052551 
	C833.125183,471.487976 826.753601,462.700623 814.760498,459.967438 
z"/>
<path fill="#FFFFFF" opacity="1.000000" stroke="none" 
	d="
M514.925232,640.920105 
	C508.409882,644.321899 501.603271,647.270081 495.442993,651.224915 
	C484.450134,658.282104 474.018219,666.219604 462.953705,673.153809 
	C460.401733,674.753052 456.229706,674.077087 452.823792,673.939270 
	C445.753693,673.653137 438.697357,673.026001 430.343842,672.450012 
	C436.550262,667.348694 441.916382,662.211243 447.979645,658.102600 
	C461.434875,648.985168 475.011230,640.001587 488.956329,631.662537 
	C509.158905,619.581604 530.999512,611.088257 553.715576,605.148315 
	C564.621155,602.296692 575.947327,601.071167 587.040283,598.891663 
	C588.184631,598.666870 589.527222,597.122192 589.947815,595.903503 
	C594.073059,583.950256 598.015442,571.933960 602.041199,559.946167 
	C602.239624,559.355164 602.727844,558.861389 603.261780,558.046753 
	C617.636414,565.063171 631.949524,572.049622 645.998718,578.907227 
	C642.587402,588.943176 639.412659,598.283325 636.301575,607.436157 
	C646.345947,612.673279 656.264709,617.846985 666.185364,623.016968 
	C676.841309,628.570129 680.840088,639.818237 687.747314,648.970947 
	C683.061401,647.301025 678.483887,645.159973 673.668640,644.052612 
	C660.955444,641.128723 648.166809,638.508423 635.351257,636.066223 
	C629.760498,635.000854 624.042358,634.535095 618.361450,634.026245 
	C604.745544,632.806580 591.753418,636.553711 579.182251,640.661682 
	C562.929871,645.972717 547.112183,652.698975 531.342041,659.370728 
	C520.987610,663.751404 511.051361,669.119568 500.916901,674.022888 
	C500.064484,674.435303 499.130463,674.948608 498.231537,674.954102 
	C487.646515,675.018982 477.060974,674.995850 466.274780,674.483887 
	C482.037384,662.716492 497.798126,651.147583 515.763245,641.672363 
	C516.797180,641.028687 517.338440,640.865784 517.879700,640.702881 
	C517.775879,640.410583 517.672119,640.118225 517.568298,639.825928 
	C516.687256,640.190674 515.806274,640.555359 514.925232,640.920105 
z"/>
<path fill="#000000" opacity="1.000000" stroke="none" 
	d="
M816.984680,697.155090 
	C810.988647,680.866577 805.001953,664.982117 799.036560,649.089661 
	C798.259277,647.018921 797.591187,644.907166 796.783936,642.556274 
	C813.719421,648.598083 830.242310,654.731689 846.932617,660.369812 
	C859.837402,664.729187 872.989746,668.351440 885.947449,672.561523 
	C889.325745,673.659241 890.417847,672.279724 890.979370,669.526245 
	C892.494629,662.096619 893.947205,654.654175 895.622498,646.220642 
	C896.962585,647.976685 898.199890,649.128906 898.871399,650.548767 
	C907.977539,669.801880 918.586853,688.197144 930.978027,705.499146 
	C940.593201,718.924988 950.514832,732.148315 960.733215,745.120605 
	C972.429199,759.968689 984.529724,774.501160 996.605286,789.045532 
	C1001.742859,795.233582 1007.169556,801.190369 1012.628967,807.100647 
	C1026.070679,821.652649 1039.432983,836.284241 1053.145508,850.578552 
	C1075.577637,873.962341 1098.178345,897.186584 1120.940063,920.249207 
	C1124.017334,923.367249 1123.998535,925.519714 1122.060059,928.980591 
	C1111.078003,948.588013 1100.274902,968.295654 1088.929077,988.841675 
	C1044.786011,935.355408 1000.914612,882.198242 956.918762,828.890259 
	C954.701294,830.265381 952.856995,831.409180 950.308044,832.989868 
	C953.966309,838.907532 957.460327,844.802063 961.186035,850.546265 
	C982.305603,883.107178 1003.527405,915.601868 1024.621460,948.179321 
	C1040.281616,972.364807 1055.781006,996.654358 1071.415405,1020.856750 
	C1072.828857,1023.044739 1072.713745,1024.407349 1071.135254,1026.707031 
	C1058.552002,1045.039917 1046.233276,1063.554443 1033.517578,1082.483398 
	C1028.172974,1074.458252 1022.953003,1066.926270 1018.048340,1059.194458 
	C1006.330872,1040.722534 994.693176,1022.199219 983.153748,1003.615723 
	C972.464294,986.401062 961.906250,969.104492 951.359070,951.802002 
	C938.471985,930.661072 925.562622,909.532593 912.843994,888.290344 
	C904.751282,874.774048 896.830933,861.148682 889.115051,847.414001 
	C878.806641,829.064697 868.283203,810.809875 858.754150,792.056091 
	C848.951965,772.764648 839.973267,753.038635 831.140503,733.276550 
	C825.920044,721.596619 821.680969,709.477966 816.984680,697.155090 
z"/>
<path fill="#000000" opacity="1.000000" stroke="none" 
	d="
M9.000000,481.824951 
	C8.225065,467.047485 8.849055,452.816956 13.458245,439.143646 
	C18.597715,423.897278 26.861511,410.469971 37.230125,398.043488 
	C51.454399,380.996094 69.641342,372.273682 91.204590,370.087646 
	C105.725471,368.615540 120.336006,368.039154 134.900681,366.982605 
	C141.895126,366.475250 146.109146,369.945312 147.852448,376.249542 
	C151.315460,388.772705 154.199783,401.468536 156.920761,414.179169 
	C158.378342,420.988159 159.608002,427.958008 159.815079,434.888916 
	C159.997711,441.001556 158.814255,447.192108 157.848984,453.287292 
	C157.316895,456.647095 155.092606,458.114044 151.335648,458.105438 
	C143.593018,458.087677 135.849289,458.672058 128.105499,458.996002 
	C114.220932,459.576904 100.846832,463.125336 88.326538,468.549469 
	C68.038193,477.338959 48.339352,487.490021 28.403934,497.091766 
	C26.691002,497.916809 25.168543,499.251007 23.388395,499.802399 
	C16.880650,501.818176 13.932746,500.782104 11.609315,494.028625 
	C10.313569,490.262268 9.842634,486.212158 9.000000,481.824951 
z"/>
<path fill="#000000" opacity="1.000000" stroke="none" 
	d="
M691.339478,226.268677 
	C670.023438,233.488846 649.204346,241.003601 628.033936,247.345230 
	C594.997681,257.241272 561.843567,266.799194 528.497498,275.581696 
	C512.456299,279.806519 495.928528,282.372894 479.494171,284.847046 
	C469.296692,286.382263 458.808258,287.321350 448.544617,286.771057 
	C432.701019,285.921661 417.599731,280.914886 402.806366,275.324829 
	C380.791962,267.006104 360.575623,255.092072 340.158325,243.596985 
	C339.767853,243.377167 339.552704,242.846054 338.766266,241.824173 
	C344.733612,243.360886 350.012207,244.914062 355.377136,246.064377 
	C369.711334,249.137817 383.995209,252.602295 398.464539,254.843369 
	C412.007294,256.940918 425.753571,258.636566 439.425842,258.758057 
	C456.992065,258.914154 474.341125,255.692307 491.282471,250.923828 
	C514.221497,244.467163 536.206482,235.416504 556.965210,223.835022 
	C573.661377,214.520111 589.835571,204.189285 605.736084,193.553772 
	C618.903076,184.746658 631.347778,174.857285 644.075928,165.398361 
	C646.791138,163.380600 649.247009,159.656708 652.009827,159.468307 
	C654.436768,159.302826 657.124756,162.990799 659.700256,164.973221 
	C673.837585,175.855179 687.965393,186.749512 702.118408,197.611038 
	C708.417114,202.444870 714.773376,207.203583 721.087402,212.017532 
	C722.090942,212.782669 723.009216,213.659683 724.581177,215.014359 
	C713.176392,218.835220 702.427734,222.436279 691.339478,226.268677 
M636.551208,207.038925 
	C631.010986,210.770370 625.470703,214.501816 619.442444,218.561935 
	C623.671509,221.092728 627.573669,222.843460 630.722473,225.490295 
	C633.420105,227.757782 635.559509,226.993118 637.791199,225.622665 
	C641.901306,223.098724 645.919189,220.407974 649.837524,217.594635 
	C652.150513,215.933884 654.027649,216.023544 656.282043,217.719727 
	C660.792053,221.112991 665.457275,224.300491 670.075012,227.549316 
	C670.643005,227.948914 671.542480,228.646011 671.900208,228.459793 
	C676.784729,225.916916 681.600830,223.242599 686.913818,220.338242 
	C680.051514,215.299561 674.089539,210.922012 667.833435,206.328476 
	C674.275696,202.256439 680.608765,198.253372 687.698181,193.772217 
	C682.554993,190.338913 677.695496,187.094986 672.888184,183.885895 
	C667.179810,187.674789 661.767639,191.483719 656.096436,194.857269 
	C654.893494,195.572815 652.380310,195.272614 651.097900,194.455856 
	C646.344543,191.428391 641.945496,187.845428 637.200745,184.802780 
	C635.963440,184.009338 633.610596,183.750854 632.364868,184.395706 
	C628.215698,186.543518 624.336792,189.213516 620.014160,191.894318 
	C626.034363,196.337967 631.892639,200.653534 637.731384,204.995285 
	C638.044617,205.228210 638.459351,205.809692 638.364807,206.004684 
	C638.168945,206.408112 637.661621,206.660370 636.551208,207.038925 
z"/>
<path fill="#000000" opacity="1.000000" stroke="none" 
	d="
M206.798431,294.701324 
	C216.404190,289.754639 225.828201,285.702057 236.318542,283.719971 
	C249.469162,281.235168 262.382812,281.476501 275.254639,284.136780 
	C299.049438,289.054565 320.233154,299.961090 340.105072,313.628296 
	C340.783630,314.094971 341.340149,314.739075 343.139343,316.385712 
	C332.280823,326.566467 321.622955,336.652649 310.862091,346.627716 
	C291.516571,364.560516 268.851776,376.217133 243.158005,381.990662 
	C236.403046,383.508514 229.619400,385.118011 222.759399,385.899658 
	C211.396881,387.194336 201.327271,381.941223 191.020218,378.390625 
	C185.294113,376.418121 179.742126,373.711792 174.470413,370.706879 
	C167.979370,367.006927 167.143127,362.724091 167.805420,354.901489 
	C168.557953,346.013245 171.238815,337.911041 175.014771,330.042450 
	C182.093216,315.291931 192.666534,303.640076 206.798431,294.701324 
M291.609497,343.912323 
	C294.980591,333.318024 294.246490,322.748291 290.075867,312.700653 
	C283.164948,296.051208 270.416656,286.174561 252.638992,283.129578 
	C250.279022,282.725372 247.066986,283.093262 245.266022,284.451416 
	C240.688004,287.903809 236.725876,292.164368 232.446106,296.022522 
	C222.900940,304.627350 213.458252,313.355347 203.676392,321.683868 
	C199.175751,325.515808 197.858612,329.722260 199.573456,335.166840 
	C199.813461,335.928833 199.916840,336.745941 199.991501,337.546082 
	C200.865448,346.913422 204.908249,355.005585 211.260925,361.587952 
	C223.452530,374.220337 238.268585,379.287170 255.922089,376.088501 
	C271.539398,373.258820 287.130463,359.844788 291.609497,343.912323 
z"/>
<path fill="#000000" opacity="1.000000" stroke="none" 
	d="
M547.028687,125.000000 
	C543.205566,124.597916 539.841980,124.195839 535.869995,123.721024 
	C561.999939,100.341362 592.599243,81.924316 609.393188,49.383400 
	C630.733582,62.846073 651.609619,76.015839 673.592346,89.883743 
	C658.032410,106.483139 643.328552,122.229744 628.489502,137.847824 
	C627.607483,138.776169 625.526489,139.233627 624.194580,138.964325 
	C608.261169,135.742996 592.408813,132.105743 576.440430,129.077698 
	C566.875916,127.264000 557.144592,126.329613 547.028687,125.000000 
M626.967529,74.458015 
	C625.425903,73.712341 623.884277,72.966660 623.315002,72.691299 
	C610.927368,87.206009 598.792786,101.424202 585.760132,116.694649 
	C589.725403,119.692535 594.439331,123.256470 599.320801,126.947083 
	C613.364685,114.494698 626.578186,99.255257 637.072144,81.498283 
	C633.863708,79.320969 630.672180,77.155113 626.967529,74.458015 
z"/>
<path fill="#000000" opacity="1.000000" stroke="none" 
	d="
M111.723633,309.711182 
	C117.977074,295.485504 127.930580,285.186676 140.566956,276.947327 
	C155.553360,267.175659 169.929642,256.466156 184.946335,246.743866 
	C193.125763,241.448242 201.989120,237.167953 210.710052,232.758041 
	C230.777344,222.610611 252.488464,218.213577 274.506592,214.992599 
	C281.409821,213.982727 288.303436,212.884018 295.230774,212.077988 
	C297.000763,211.872040 298.882599,212.627380 301.892639,213.143219 
	C235.431870,250.611526 168.009689,283.997223 106.154724,327.043915 
	C105.597672,326.509155 105.040619,325.974365 104.483566,325.439575 
	C106.817284,320.296967 109.151001,315.154327 111.723633,309.711182 
z"/>
<path fill="#000000" opacity="1.000000" stroke="none" 
	d="
M307.677673,170.826263 
	C317.322601,159.310394 328.377533,149.997177 342.056396,144.664047 
	C350.814209,141.249542 360.087677,138.362289 369.370239,137.257782 
	C387.640442,135.083832 406.078003,134.315933 424.528076,134.140182 
	C414.997864,137.611542 405.435120,140.996719 395.945831,144.576477 
	C384.482574,148.900894 373.872467,154.749786 363.584534,161.485077 
	C357.994232,165.144913 350.918488,166.514847 344.549103,169.010300 
	C333.199615,173.456909 322.840210,179.645782 313.824371,187.813599 
	C308.927399,192.249939 304.761963,197.487564 300.161316,202.262390 
	C299.252655,203.205475 297.862854,203.685013 295.665405,204.989456 
	C297.359955,192.015259 300.519165,180.915833 307.677673,170.826263 
z"/>
<path fill="#000000" opacity="1.000000" stroke="none" 
	d="
M872.711792,612.213379 
	C866.168335,605.341125 860.048218,598.552429 853.571350,592.123169 
	C842.131165,580.767151 830.727173,569.352417 818.828491,558.487427 
	C808.958801,549.475159 798.386169,541.234009 788.154114,532.616638 
	C785.527222,530.404297 783.010559,528.061096 780.267944,525.622070 
	C781.219055,524.182495 782.227600,522.656006 783.751282,520.349792 
	C799.108948,527.991882 814.604309,535.256958 829.650513,543.356384 
	C838.690613,548.222656 846.873657,554.656616 855.745850,559.868591 
	C860.718384,562.789673 863.007385,567.180847 864.987122,572.090454 
	C871.984924,589.444458 879.004272,606.789734 886.004822,624.142578 
	C886.457458,625.264404 886.820435,626.422485 887.605713,628.637268 
	C882.163635,622.619751 877.569031,617.539368 872.711792,612.213379 
z"/>
<path fill="#000000" opacity="1.000000" stroke="none" 
	d="
M490.928589,162.980453 
	C472.422821,168.876083 455.842346,177.761902 441.053345,189.599762 
	C422.964417,204.079056 409.144836,222.046478 401.185577,243.983017 
	C399.453430,248.757050 396.636139,246.217056 393.755219,247.057617 
	C399.675323,228.727707 409.050049,213.170929 421.885742,199.528183 
	C435.219940,185.355637 450.357452,173.641800 468.034790,165.583694 
	C485.732056,157.516495 503.992065,151.095322 523.358704,147.872574 
	C540.456421,145.027344 557.603821,143.129181 574.857117,144.165146 
	C588.158752,144.963821 601.410217,146.991760 614.609741,148.969055 
	C624.092651,150.389603 633.453003,152.628174 643.074951,154.542984 
	C640.443054,159.924561 636.731934,159.722473 632.478271,158.906555 
	C619.788025,156.472305 607.113037,153.801956 594.312683,152.147339 
	C583.570129,150.758743 572.624146,149.757660 561.831604,150.185165 
	C537.802124,151.137085 514.026428,154.254669 490.928589,162.980453 
z"/>
<path fill="#000000" opacity="1.000000" stroke="none" 
	d="
M329.997009,195.034973 
	C327.588287,198.491913 325.456818,201.818970 322.777313,204.622162 
	C318.561005,209.033096 313.577087,208.302353 308.617157,205.798065 
	C311.350067,198.091736 333.348358,181.068054 342.120148,180.201172 
	C337.961761,185.177170 333.995148,189.923676 329.997009,195.034973 
z"/>
<path fill="#000000" opacity="1.000000" stroke="none" 
	d="
M815.169922,459.982666 
	C826.753601,462.700623 833.125183,471.487976 832.681946,484.052551 
	C824.654846,477.300903 816.836914,470.725189 808.778992,463.947601 
	C810.156616,461.666168 809.709595,457.036926 815.169922,459.982666 
z"/>
<path fill="#000000" opacity="1.000000" stroke="none" 
	d="
M515.124512,641.100952 
	C515.806274,640.555359 516.687256,640.190674 517.568298,639.825928 
	C517.672119,640.118225 517.775879,640.410583 517.879700,640.702881 
	C517.338440,640.865784 516.797180,641.028687 516.001831,641.402588 
	C515.606384,641.503052 515.465088,641.392456 515.124512,641.100952 
z"/>
<path fill="#FFFFFF" opacity="1.000000" stroke="none" 
	d="
M636.916809,207.006866 
	C637.661621,206.660370 638.168945,206.408112 638.364807,206.004684 
	C638.459351,205.809692 638.044617,205.228210 637.731384,204.995285 
	C631.892639,200.653534 626.034363,196.337967 620.014160,191.894318 
	C624.336792,189.213516 628.215698,186.543518 632.364868,184.395706 
	C633.610596,183.750854 635.963440,184.009338 637.200745,184.802780 
	C641.945496,187.845428 646.344543,191.428391 651.097900,194.455856 
	C652.380310,195.272614 654.893494,195.572815 656.096436,194.857269 
	C661.767639,191.483719 667.179810,187.674789 672.888184,183.885895 
	C677.695496,187.094986 682.554993,190.338913 687.698181,193.772217 
	C680.608765,198.253372 674.275696,202.256439 667.833435,206.328476 
	C674.089539,210.922012 680.051514,215.299561 686.913818,220.338242 
	C681.600830,223.242599 676.784729,225.916916 671.900208,228.459793 
	C671.542480,228.646011 670.643005,227.948914 670.075012,227.549316 
	C665.457275,224.300491 660.792053,221.112991 656.282043,217.719727 
	C654.027649,216.023544 652.150513,215.933884 649.837524,217.594635 
	C645.919189,220.407974 641.901306,223.098724 637.791199,225.622665 
	C635.559509,226.993118 633.420105,227.757782 630.722473,225.490295 
	C627.573669,222.843460 623.671509,221.092728 619.442444,218.561935 
	C625.470703,214.501816 631.010986,210.770370 636.916809,207.006866 
z"/>
<path fill="#FFFFFF" opacity="1.000000" stroke="none" 
	d="
M291.330170,344.222473 
	C287.130463,359.844788 271.539398,373.258820 255.922089,376.088501 
	C238.268585,379.287170 223.452530,374.220337 211.260925,361.587952 
	C204.908249,355.005585 200.865448,346.913422 199.991501,337.546082 
	C199.916840,336.745941 199.813461,335.928833 199.573456,335.166840 
	C197.858612,329.722260 199.175751,325.515808 203.676392,321.683868 
	C213.458252,313.355347 222.900940,304.627350 232.446106,296.022522 
	C236.725876,292.164368 240.688004,287.903809 245.266022,284.451416 
	C247.066986,283.093262 250.279022,282.725372 252.638992,283.129578 
	C270.416656,286.174561 283.164948,296.051208 290.075867,312.700653 
	C294.246490,322.748291 294.980591,333.318024 291.330170,344.222473 
M276.037048,304.558167 
	C270.407196,297.924866 263.283600,293.532776 254.899643,291.581665 
	C252.636765,291.054993 249.269547,291.783661 247.497116,293.250580 
	C240.258896,299.241058 233.428436,305.725739 226.479858,312.063568 
	C224.761383,313.630981 223.202408,315.372437 221.499100,316.957611 
	C219.894409,318.450928 218.196014,319.843628 216.538849,321.280609 
	C228.852966,315.177521 240.620529,314.161591 250.644592,324.436401 
	C257.656097,331.623291 260.195923,340.790070 255.968948,350.708496 
	C251.563248,361.046295 243.402512,365.887970 231.618546,366.282867 
	C239.286728,369.167145 246.247467,369.580627 253.663132,368.098114 
	C274.757294,363.881042 285.132812,347.437225 285.714294,330.390137 
	C286.024750,321.288696 282.775970,312.362183 276.037048,304.558167 
M211.653946,325.894104 
	C209.285828,328.428955 205.002777,330.142914 208.008926,335.481415 
	C210.133362,332.060150 212.065811,328.948029 213.998245,325.835907 
	C213.387695,325.649963 212.777161,325.463989 211.653946,325.894104 
z"/>
<path fill="#FFFFFF" opacity="1.000000" stroke="none" 
	d="
M627.224121,74.723633 
	C630.672180,77.155113 633.863708,79.320969 637.072144,81.498283 
	C626.578186,99.255257 613.364685,114.494698 599.320801,126.947083 
	C594.439331,123.256470 589.725403,119.692535 585.760132,116.694649 
	C598.792786,101.424202 610.927368,87.206009 623.315002,72.691299 
	C623.884277,72.966660 625.425903,73.712341 627.224121,74.723633 
z"/>
<path fill="#000000" opacity="1.000000" stroke="none" 
	d="
M276.306396,304.803711 
	C282.775970,312.362183 286.024750,321.288696 285.714294,330.390137 
	C285.132812,347.437225 274.757294,363.881042 253.663132,368.098114 
	C246.247467,369.580627 239.286728,369.167145 231.618546,366.282867 
	C243.402512,365.887970 251.563248,361.046295 255.968948,350.708496 
	C260.195923,340.790070 257.656097,331.623291 250.644592,324.436401 
	C240.620529,314.161591 228.852966,315.177521 216.538849,321.280609 
	C218.196014,319.843628 219.894409,318.450928 221.499100,316.957611 
	C223.202408,315.372437 224.761383,313.630981 226.479858,312.063568 
	C233.428436,305.725739 240.258896,299.241058 247.497116,293.250580 
	C249.269547,291.783661 252.636765,291.054993 254.899643,291.581665 
	C263.283600,293.532776 270.407196,297.924866 276.306396,304.803711 
z"/>
<path fill="#000000" opacity="1.000000" stroke="none" 
	d="
M211.910278,325.586060 
	C212.777161,325.463989 213.387695,325.649963 213.998260,325.835907 
	C212.065811,328.948029 210.133362,332.060150 208.008926,335.481415 
	C205.002777,330.142914 209.285828,328.428955 211.910278,325.586060 
z"/>
</svg>